<svg width="28" height="29" viewBox="0 0 28 29" fill="none" xmlns="http://www.w3.org/2000/svg">
<rect y="0.5" width="28" height="28" rx="6" fill="#2AABEE"/>
<path d="M20.2217 7.13244C20.2217 7.13244 21.6092 6.48315 21.4931 8.05986C21.4549 8.70914 21.1081 10.9818 20.8381 13.4397L19.9131 20.7211C19.9131 20.7211 19.836 21.7878 19.1421 21.9734C18.4485 22.1585 17.4078 21.3241 17.215 21.1385C17.0607 20.9992 14.3243 18.9121 13.3607 17.8921C13.0907 17.6135 12.7822 17.0573 13.3993 16.408L17.446 11.77C17.9085 11.2137 18.371 9.91514 16.4439 11.4918L11.0475 15.8975C11.0475 15.8975 10.4308 16.3617 9.27471 15.9443L6.76903 15.0164C6.76903 15.0164 5.84404 14.3208 7.42438 13.6253C11.279 11.4456 16.02 9.21957 20.221 7.13244H20.2217Z" fill="white"/>
</svg>
