<svg width="53" height="51" viewBox="0 0 53 51" fill="none" xmlns="http://www.w3.org/2000/svg">
<path d="M20.8216 9.97969C22.9232 4.7404 23.974 2.12075 25.6812 1.75768C26.1301 1.66221 26.594 1.66221 27.0429 1.75768C28.7501 2.12075 29.8009 4.7404 31.9025 9.97969C33.0977 12.9592 33.6953 14.4489 34.8134 15.4622C35.127 15.7464 35.4675 15.9995 35.83 16.218C37.1224 16.9969 38.7357 17.1414 41.9623 17.4304C47.4244 17.9196 50.1555 18.1641 50.9895 19.7213C51.1622 20.0438 51.2796 20.393 51.3369 20.7544C51.6134 22.499 49.6057 24.3257 45.5902 27.9789L44.4751 28.9934C42.5978 30.7013 41.6592 31.5553 41.1162 32.621C40.7906 33.2604 40.5722 33.9489 40.4699 34.659C40.2993 35.8429 40.5742 37.0817 41.1239 39.5594L41.3203 40.4447C42.3062 44.8881 42.7991 47.1098 42.1838 48.2019C41.631 49.1828 40.6129 49.8108 39.4883 49.8645C38.2362 49.9243 36.472 48.4868 32.9437 45.6116C30.619 43.7174 29.4567 42.7703 28.1664 42.4003C26.9873 42.0622 25.7368 42.0622 24.5577 42.4003C23.2674 42.7703 22.1051 43.7174 19.7805 45.6116C16.2521 48.4868 14.4879 49.9243 13.2358 49.8645C12.1112 49.8108 11.0931 49.1828 10.5404 48.2019C9.92502 47.1098 10.418 44.8881 11.4038 40.4447L11.6002 39.5595C12.15 37.0817 12.4248 35.8429 12.2543 34.659C12.1519 33.9489 11.9336 33.2604 11.6079 32.621C11.065 31.5553 10.1263 30.7013 8.24901 28.9934L7.13393 27.9789C3.11846 24.3257 1.11073 22.499 1.38722 20.7544C1.44449 20.393 1.56193 20.0438 1.73465 19.7213C2.56865 18.1641 5.29971 17.9196 10.7618 17.4304C13.9885 17.1414 15.6018 16.9969 16.8941 16.218C17.2566 15.9995 17.5971 15.7464 17.9107 15.4622C19.0289 14.4489 19.6264 12.9592 20.8216 9.97969Z" fill="#FFFF00" stroke="#FFFF00" stroke-width="2"/>
</svg>
